<?xml version="1.0" standalone="no"?><!-- Generator: Gravit.io --><svg xmlns="http://www.w3.org/2000/svg" xmlns:xlink="http://www.w3.org/1999/xlink" style="isolation:isolate" viewBox="274 -772.674 446 319.674" width="446" height="319.674"><g><path d=" M 460.815 -568.323 C 460.815 -510.455 433.813 -494.998 417.847 -494.998 C 412.157 -494.998 362.27 -497.801 362.27 -597.048 C 362.27 -608.824 367.494 -620.265 375.583 -626.116 C 379.887 -629.243 386.937 -632.221 396.715 -629.852 C 393.752 -620.616 392.392 -610.11 392.392 -599.379 C 392.432 -588.479 393.765 -577.623 396.364 -567.038 C 396.465 -566.601 396.61 -566.193 396.715 -565.756 C 396.991 -564.661 397.223 -563.552 397.53 -562.487 C 398.634 -558.433 399.999 -554.454 401.617 -550.576 C 402.334 -548.868 403.048 -547.146 403.836 -545.554 L 404.188 -544.855 C 404.203 -544.87 404.288 -544.84 404.303 -544.855 C 404.741 -543.996 405.122 -543.118 405.589 -542.285 C 410.169 -534.17 415.34 -529.327 419.364 -529.327 C 429.157 -529.327 434.31 -542.842 434.31 -568.323 C 434.31 -585.719 430.05 -595.923 422.634 -596.461 C 416.02 -596.958 406.96 -590.158 401.266 -580.466 C 398.172 -601.367 399.924 -624.001 408.626 -638.494 C 408.944 -638.991 409.224 -639.443 409.56 -639.895 C 412.871 -641.166 416.099 -641.648 418.782 -641.648 C 439.712 -641.648 460.815 -619.009 460.815 -568.323 Z  M 369.859 -521.152 C 349.107 -493.231 322.075 -480.943 307.862 -478.069 C 305.875 -477.673 303.876 -479.018 303.424 -480.987 L 298.637 -501.653 C 322.281 -503.521 347.31 -514.393 365.539 -530.377 C 366.808 -527.225 368.25 -524.145 369.859 -521.152 Z  M 362.737 -537.966 C 343.94 -520.394 316.426 -508.894 291.512 -508.894 C 289.85 -508.894 288.348 -509.973 287.896 -511.58 L 274.116 -560.264 C 274.015 -560.6 274 -560.981 274 -561.317 C 273.988 -562.114 274.235 -562.893 274.703 -563.537 C 275.402 -564.471 276.571 -565.039 277.737 -565.054 C 278.249 -565.069 325.128 -566.048 354.913 -591.324 C 355.366 -569.182 358.287 -551.67 362.737 -537.966 Z " fill="rgb(0,0,0)"/><path d=" M 533.185 -568.323 C 533.185 -510.455 560.187 -494.998 576.153 -494.998 C 581.843 -494.998 631.73 -497.801 631.73 -597.048 C 631.73 -608.824 626.506 -620.265 618.417 -626.116 C 614.113 -629.243 607.063 -632.221 597.285 -629.852 C 600.248 -620.616 601.608 -610.11 601.608 -599.379 C 601.568 -588.479 600.235 -577.623 597.636 -567.038 C 597.535 -566.601 597.39 -566.193 597.285 -565.756 C 597.009 -564.661 596.777 -563.552 596.47 -562.487 C 595.366 -558.433 594.001 -554.454 592.383 -550.576 C 591.666 -548.868 590.952 -547.146 590.164 -545.554 L 589.812 -544.855 C 589.797 -544.87 589.712 -544.84 589.697 -544.855 C 589.259 -543.996 588.878 -543.118 588.411 -542.285 C 583.831 -534.17 578.66 -529.327 574.636 -529.327 C 564.843 -529.327 559.69 -542.842 559.69 -568.323 C 559.69 -585.719 563.95 -595.923 571.366 -596.461 C 577.98 -596.958 587.04 -590.158 592.734 -580.466 C 595.828 -601.367 594.076 -624.001 585.374 -638.494 C 585.056 -638.991 584.776 -639.443 584.44 -639.895 C 581.129 -641.166 577.901 -641.648 575.218 -641.648 C 554.288 -641.648 533.185 -619.009 533.185 -568.323 Z  M 624.141 -521.152 C 644.893 -493.231 671.925 -480.943 686.138 -478.069 C 688.125 -477.673 690.124 -479.018 690.576 -480.987 L 695.362 -501.653 C 671.719 -503.521 646.69 -514.393 628.461 -530.377 C 627.192 -527.225 625.75 -524.145 624.141 -521.152 Z  M 631.263 -537.966 C 650.06 -520.394 677.574 -508.894 702.488 -508.894 C 704.15 -508.894 705.652 -509.973 706.104 -511.58 L 719.884 -560.264 C 719.985 -560.6 720 -560.981 720 -561.317 C 720.012 -562.114 719.765 -562.893 719.297 -563.537 C 718.598 -564.471 717.429 -565.039 716.263 -565.054 C 715.751 -565.069 668.872 -566.048 639.087 -591.324 C 638.634 -569.182 635.713 -551.67 631.263 -537.966 Z " fill="rgb(0,0,0)"/><g><ellipse vector-effect="non-scaling-stroke" cx="496.62497524144834" cy="-589.0023630915111" rx="126.76216964012752" ry="127.23498749739122" fill="rgb(0,0,0)"/><ellipse vector-effect="non-scaling-stroke" cx="496.38714488157564" cy="-589.0023630915113" rx="137.49999999999986" ry="136.00236309151126" fill="rgb(0,0,0)"/><ellipse vector-effect="non-scaling-stroke" cx="496.3871448815757" cy="-589.0023630915114" rx="121.01926139153744" ry="121.47065842916493" fill="rgb(166,166,166)"/><rect x="407.387" y="-629.002" width="65" height="6" transform="matrix(1,0,0,1,0,0)" fill="rgb(0,0,0)"/><rect x="518.387" y="-629.002" width="65" height="6" transform="matrix(1,0,0,1,0,0)" fill="rgb(0,0,0)"/><g><path d=" M 495.907 -631.734 C 496.448 -631.298 497 -630.854 497.634 -630.343 C 500.495 -628.039 504.819 -624.557 511.173 -617.891 C 519.659 -608.991 521.538 -605.244 518.901 -602.472 C 518.207 -601.746 517.302 -601.002 515.849 -601.002 C 515.849 -601.002 515.85 -601.002 515.849 -601.002 C 513.217 -601.002 509.595 -603.57 504.107 -609.324 C 500.934 -612.655 498.736 -616.238 496.971 -619.116 C 495.9 -620.862 494.974 -622.37 494.192 -623.189 C 493.116 -624.318 491.548 -625.044 489.718 -625.711 L 495.907 -631.734 L 495.907 -631.734 Z " fill="rgb(255,189,74)"/><path d=" M 493.377 -634.534 L 470.538 -658.487 L 469.947 -656.783 C 465.907 -645.152 473.337 -636.111 475.71 -633.618 C 478.861 -630.317 482.716 -628.941 486.186 -627.792 L 493.377 -634.534 L 493.377 -634.534 Z " fill="rgb(255,189,74)"/><path d=" M 501.294 -648.041 C 501.834 -649.044 502.511 -650.011 503.362 -650.904 C 506.78 -654.485 512.42 -657.085 516.775 -657.085 C 519.041 -657.085 520.895 -656.395 522.138 -655.092 C 526.115 -650.921 523.264 -640.78 518.14 -635.405 C 514.646 -631.741 510.056 -631.133 506.706 -630.69 C 504.991 -630.462 503.371 -630.248 502.857 -629.709 C 502.086 -628.899 500.031 -626.387 497.651 -623.481 C 493.844 -618.829 489.107 -613.04 486.192 -609.985 C 479.214 -602.662 476.556 -601.675 474.879 -601.675 C 474.878 -601.675 474.878 -601.675 474.879 -601.675 C 473.612 -601.675 472.819 -602.354 472.332 -602.863 C 469.723 -605.602 471.501 -609.404 479.126 -617.396 C 482.034 -620.451 487.55 -625.415 491.983 -629.405 C 494.761 -631.905 497.16 -634.063 497.933 -634.876 C 498.452 -635.419 498.675 -637.22 498.89 -638.962 C 499.217 -641.609 499.636 -644.992 501.294 -648.041" fill="rgb(255,189,74)"/></g><path d=" M 418.467 -562.112 L 418.467 -582.752 L 425.907 -582.752 L 425.907 -582.752 Q 430.527 -582.752 433.062 -580.952 L 433.062 -580.952 L 433.062 -580.952 Q 435.597 -579.152 435.597 -575.912 L 435.597 -575.912 L 435.597 -575.912 Q 435.597 -573.872 434.352 -572.342 L 434.352 -572.342 L 434.352 -572.342 Q 433.107 -570.812 430.962 -569.987 L 430.962 -569.987 L 430.962 -569.987 Q 428.817 -569.162 426.207 -569.162 L 426.207 -569.162 L 424.947 -569.162 L 424.947 -562.112 L 418.467 -562.112 L 418.467 -562.112 Z  M 426.237 -573.332 L 426.237 -573.332 Q 427.827 -573.332 428.697 -573.992 L 428.697 -573.992 L 428.697 -573.992 Q 429.567 -574.652 429.567 -575.912 L 429.567 -575.912 L 429.567 -575.912 Q 429.567 -577.172 428.712 -577.802 L 428.712 -577.802 L 428.712 -577.802 Q 427.857 -578.432 426.237 -578.432 L 426.237 -578.432 L 424.947 -578.432 L 424.947 -573.392 L 424.947 -573.392 Q 425.547 -573.332 426.237 -573.332 L 426.237 -573.332 L 426.237 -573.332 Z  M 437.937 -562.112 L 437.937 -582.752 L 444.417 -582.752 L 444.417 -566.672 L 451.587 -566.672 L 451.587 -562.112 L 437.937 -562.112 L 437.937 -562.112 Z  M 452.277 -562.112 L 457.977 -582.752 L 467.097 -582.752 L 473.067 -562.112 L 466.017 -562.112 L 465.237 -566.072 L 459.897 -566.072 L 459.027 -562.112 L 452.277 -562.112 L 452.277 -562.112 Z  M 460.527 -569.762 L 464.517 -569.762 L 462.567 -578.792 L 460.527 -569.762 L 460.527 -569.762 Z  M 475.047 -562.112 L 475.047 -582.752 L 481.077 -582.752 L 489.297 -571.622 L 489.297 -582.752 L 494.667 -582.752 L 494.667 -562.112 L 488.667 -562.112 L 480.387 -572.852 L 480.387 -562.112 L 475.047 -562.112 L 475.047 -562.112 Z  M 498.567 -562.112 L 498.567 -582.752 L 504.597 -582.752 L 512.817 -571.622 L 512.817 -582.752 L 518.187 -582.752 L 518.187 -562.112 L 512.187 -562.112 L 503.907 -572.852 L 503.907 -562.112 L 498.567 -562.112 L 498.567 -562.112 Z  M 522.087 -562.112 L 522.087 -582.752 L 529.017 -582.752 L 529.017 -562.112 L 522.087 -562.112 L 522.087 -562.112 Z  M 532.917 -562.112 L 532.917 -582.752 L 538.947 -582.752 L 547.167 -571.622 L 547.167 -582.752 L 552.537 -582.752 L 552.537 -562.112 L 546.537 -562.112 L 538.257 -572.852 L 538.257 -562.112 L 532.917 -562.112 L 532.917 -562.112 Z  M 566.037 -561.632 L 566.037 -561.632 Q 563.007 -561.632 560.577 -563.087 L 560.577 -563.087 L 560.577 -563.087 Q 558.147 -564.542 556.767 -567.062 L 556.767 -567.062 L 556.767 -567.062 Q 555.387 -569.582 555.387 -572.612 L 555.387 -572.612 L 555.387 -572.612 Q 555.387 -575.522 556.782 -577.952 L 556.782 -577.952 L 556.782 -577.952 Q 558.177 -580.382 560.667 -581.792 L 560.667 -581.792 L 560.667 -581.792 Q 563.157 -583.202 566.337 -583.202 L 566.337 -583.202 L 566.337 -583.202 Q 568.077 -583.202 569.712 -582.812 L 569.712 -582.812 L 569.712 -582.812 Q 571.347 -582.422 572.667 -581.702 L 572.667 -581.702 L 570.687 -577.052 L 570.687 -577.052 Q 568.647 -577.892 566.877 -577.892 L 566.877 -577.892 L 566.877 -577.892 Q 564.567 -577.892 563.307 -576.407 L 563.307 -576.407 L 563.307 -576.407 Q 562.047 -574.922 562.047 -572.522 L 562.047 -572.522 L 562.047 -572.522 Q 562.047 -570.962 562.617 -569.717 L 562.617 -569.717 L 562.617 -569.717 Q 563.187 -568.472 564.222 -567.752 L 564.222 -567.752 L 564.222 -567.752 Q 565.257 -567.032 566.577 -567.032 L 566.577 -567.032 L 566.577 -567.032 Q 567.297 -567.032 567.777 -567.152 L 567.777 -567.152 L 567.777 -571.982 L 572.967 -572.582 L 572.967 -563.192 L 572.967 -563.192 Q 569.577 -561.632 566.037 -561.632 L 566.037 -561.632 L 566.037 -561.632 Z " fill="rgb(0,0,0)"/><g><rect x="407.887" y="-532.3" width="177" height="22.596" transform="matrix(1,0,0,1,0,0)" fill="rgb(0,0,0)"/><path d=" M 537.848 -516.356 L 537.848 -516.356 Q 535.193 -516.356 534.6 -518.813 L 534.6 -518.813 L 534.247 -520.268 L 533.583 -520.268 L 533.583 -516.582 L 530.49 -516.582 L 530.49 -526.298 L 534.769 -526.298 L 534.769 -526.298 Q 535.984 -526.298 536.909 -525.938 L 536.909 -525.938 L 536.909 -525.938 Q 537.834 -525.578 538.342 -524.928 L 538.342 -524.928 L 538.342 -524.928 Q 538.851 -524.279 538.851 -523.431 L 538.851 -523.431 L 538.851 -523.431 Q 538.851 -522.485 538.392 -521.843 L 538.392 -521.843 L 538.392 -521.843 Q 537.933 -521.2 536.972 -520.791 L 536.972 -520.791 L 536.972 -520.791 Q 537.071 -520.254 537.198 -519.816 L 537.198 -519.816 L 537.198 -519.816 Q 537.368 -519.279 537.664 -519.068 L 537.664 -519.068 L 537.664 -519.068 Q 537.961 -518.856 538.526 -518.856 L 538.526 -518.856 L 538.526 -518.856 Q 538.724 -518.856 539.147 -518.912 L 539.147 -518.912 L 539.147 -516.61 L 539.147 -516.61 Q 538.483 -516.356 537.848 -516.356 L 537.848 -516.356 L 537.848 -516.356 Z  M 533.583 -522.245 L 534.12 -522.245 L 534.12 -522.245 Q 535.165 -522.245 535.595 -522.478 L 535.595 -522.478 L 535.595 -522.478 Q 536.026 -522.711 536.026 -523.276 L 536.026 -523.276 L 536.026 -523.276 Q 536.026 -523.756 535.673 -523.975 L 535.673 -523.975 L 535.673 -523.975 Q 535.32 -524.194 534.557 -524.194 L 534.557 -524.194 L 533.583 -524.194 L 533.583 -522.245 L 533.583 -522.245 Z  M 540.348 -516.582 L 540.348 -526.298 L 547.169 -526.298 L 547.169 -524.152 L 543.779 -524.152 L 543.779 -522.386 L 546.872 -522.386 L 546.872 -520.607 L 543.779 -520.607 L 543.779 -518.729 L 547.169 -518.729 L 547.169 -516.582 L 540.348 -516.582 L 540.348 -516.582 Z  M 548.75 -516.582 L 548.75 -526.298 L 552.253 -526.298 L 552.253 -526.298 Q 554.428 -526.298 555.621 -525.451 L 555.621 -525.451 L 555.621 -525.451 Q 556.814 -524.604 556.814 -523.078 L 556.814 -523.078 L 556.814 -523.078 Q 556.814 -522.118 556.228 -521.398 L 556.228 -521.398 L 556.228 -521.398 Q 555.642 -520.678 554.632 -520.289 L 554.632 -520.289 L 554.632 -520.289 Q 553.623 -519.901 552.394 -519.901 L 552.394 -519.901 L 551.801 -519.901 L 551.801 -516.582 L 548.75 -516.582 L 548.75 -516.582 Z  M 552.408 -521.864 L 552.408 -521.864 Q 553.157 -521.864 553.566 -522.175 L 553.566 -522.175 L 553.566 -522.175 Q 553.976 -522.485 553.976 -523.078 L 553.976 -523.078 L 553.976 -523.078 Q 553.976 -523.671 553.573 -523.968 L 553.573 -523.968 L 553.573 -523.968 Q 553.171 -524.265 552.408 -524.265 L 552.408 -524.265 L 551.801 -524.265 L 551.801 -521.892 L 551.801 -521.892 Q 552.083 -521.864 552.408 -521.864 L 552.408 -521.864 L 552.408 -521.864 Z  M 556.588 -516.582 L 559.272 -526.298 L 563.565 -526.298 L 566.375 -516.582 L 563.056 -516.582 L 562.689 -518.446 L 560.175 -518.446 L 559.766 -516.582 L 556.588 -516.582 L 556.588 -516.582 Z  M 560.472 -520.183 L 562.35 -520.183 L 561.432 -524.434 L 560.472 -520.183 L 560.472 -520.183 Z  M 570.315 -516.356 L 570.315 -516.356 Q 568.324 -516.356 566.954 -517.09 L 566.954 -517.09 L 567.66 -519.279 L 567.66 -519.279 Q 569.115 -518.757 570.259 -518.757 L 570.259 -518.757 L 570.259 -518.757 Q 570.88 -518.757 571.17 -518.905 L 571.17 -518.905 L 571.17 -518.905 Q 571.459 -519.053 571.459 -519.35 L 571.459 -519.35 L 571.459 -519.35 Q 571.459 -519.548 571.304 -519.696 L 571.304 -519.696 L 571.304 -519.696 Q 571.148 -519.844 570.682 -520.028 L 570.682 -520.028 L 570.682 -520.028 Q 570.216 -520.212 569.284 -520.48 L 569.284 -520.48 L 569.284 -520.48 Q 568.14 -520.819 567.505 -521.588 L 567.505 -521.588 L 567.505 -521.588 Q 566.869 -522.358 566.869 -523.361 L 566.869 -523.361 L 566.869 -523.361 Q 566.869 -524.914 567.893 -525.712 L 567.893 -525.712 L 567.893 -525.712 Q 568.917 -526.51 570.654 -526.51 L 570.654 -526.51 L 570.654 -526.51 Q 571.558 -526.51 572.434 -526.319 L 572.434 -526.319 L 572.434 -526.319 Q 573.309 -526.129 573.987 -525.762 L 573.987 -525.762 L 573.224 -523.629 L 573.224 -523.629 Q 572.434 -523.897 571.848 -524.017 L 571.848 -524.017 L 571.848 -524.017 Q 571.261 -524.138 570.711 -524.138 L 570.711 -524.138 L 570.711 -524.138 Q 569.779 -524.138 569.779 -523.629 L 569.779 -523.629 L 569.779 -523.629 Q 569.779 -523.375 570.082 -523.198 L 570.082 -523.198 L 570.082 -523.198 Q 570.386 -523.022 571.332 -522.754 L 571.332 -522.754 L 571.332 -522.754 Q 572.815 -522.358 573.578 -521.546 L 573.578 -521.546 L 573.578 -521.546 Q 574.34 -520.734 574.34 -519.604 L 574.34 -519.604 L 574.34 -519.604 Q 574.34 -518.037 573.323 -517.196 L 573.323 -517.196 L 573.323 -517.196 Q 572.306 -516.356 570.315 -516.356 L 570.315 -516.356 L 570.315 -516.356 Z  M 505.734 -516.356 L 505.734 -516.356 Q 503.743 -516.356 502.373 -517.09 L 502.373 -517.09 L 503.079 -519.279 L 503.079 -519.279 Q 504.533 -518.757 505.677 -518.757 L 505.677 -518.757 L 505.677 -518.757 Q 506.299 -518.757 506.588 -518.905 L 506.588 -518.905 L 506.588 -518.905 Q 506.878 -519.053 506.878 -519.35 L 506.878 -519.35 L 506.878 -519.35 Q 506.878 -519.548 506.722 -519.696 L 506.722 -519.696 L 506.722 -519.696 Q 506.567 -519.844 506.101 -520.028 L 506.101 -520.028 L 506.101 -520.028 Q 505.635 -520.212 504.703 -520.48 L 504.703 -520.48 L 504.703 -520.48 Q 503.559 -520.819 502.923 -521.588 L 502.923 -521.588 L 502.923 -521.588 Q 502.288 -522.358 502.288 -523.361 L 502.288 -523.361 L 502.288 -523.361 Q 502.288 -524.914 503.312 -525.712 L 503.312 -525.712 L 503.312 -525.712 Q 504.336 -526.51 506.073 -526.51 L 506.073 -526.51 L 506.073 -526.51 Q 506.977 -526.51 507.852 -526.319 L 507.852 -526.319 L 507.852 -526.319 Q 508.728 -526.129 509.406 -525.762 L 509.406 -525.762 L 508.643 -523.629 L 508.643 -523.629 Q 507.852 -523.897 507.266 -524.017 L 507.266 -524.017 L 507.266 -524.017 Q 506.68 -524.138 506.129 -524.138 L 506.129 -524.138 L 506.129 -524.138 Q 505.197 -524.138 505.197 -523.629 L 505.197 -523.629 L 505.197 -523.629 Q 505.197 -523.375 505.501 -523.198 L 505.501 -523.198 L 505.501 -523.198 Q 505.804 -523.022 506.751 -522.754 L 506.751 -522.754 L 506.751 -522.754 Q 508.233 -522.358 508.996 -521.546 L 508.996 -521.546 L 508.996 -521.546 Q 509.759 -520.734 509.759 -519.604 L 509.759 -519.604 L 509.759 -519.604 Q 509.759 -518.037 508.742 -517.196 L 508.742 -517.196 L 508.742 -517.196 Q 507.725 -516.356 505.734 -516.356 L 505.734 -516.356 L 505.734 -516.356 Z  M 511.086 -516.582 L 511.086 -526.298 L 517.907 -526.298 L 517.907 -524.152 L 514.518 -524.152 L 514.518 -522.386 L 517.611 -522.386 L 517.611 -520.607 L 514.518 -520.607 L 514.518 -518.729 L 517.907 -518.729 L 517.907 -516.582 L 511.086 -516.582 L 511.086 -516.582 Z  M 522.497 -516.356 L 522.497 -516.356 Q 520.506 -516.356 519.136 -517.09 L 519.136 -517.09 L 519.842 -519.279 L 519.842 -519.279 Q 521.297 -518.757 522.441 -518.757 L 522.441 -518.757 L 522.441 -518.757 Q 523.062 -518.757 523.351 -518.905 L 523.351 -518.905 L 523.351 -518.905 Q 523.641 -519.053 523.641 -519.35 L 523.641 -519.35 L 523.641 -519.35 Q 523.641 -519.548 523.486 -519.696 L 523.486 -519.696 L 523.486 -519.696 Q 523.33 -519.844 522.864 -520.028 L 522.864 -520.028 L 522.864 -520.028 Q 522.398 -520.212 521.466 -520.48 L 521.466 -520.48 L 521.466 -520.48 Q 520.322 -520.819 519.687 -521.588 L 519.687 -521.588 L 519.687 -521.588 Q 519.051 -522.358 519.051 -523.361 L 519.051 -523.361 L 519.051 -523.361 Q 519.051 -524.914 520.075 -525.712 L 520.075 -525.712 L 520.075 -525.712 Q 521.099 -526.51 522.836 -526.51 L 522.836 -526.51 L 522.836 -526.51 Q 523.74 -526.51 524.615 -526.319 L 524.615 -526.319 L 524.615 -526.319 Q 525.491 -526.129 526.169 -525.762 L 526.169 -525.762 L 525.406 -523.629 L 525.406 -523.629 Q 524.615 -523.897 524.029 -524.017 L 524.029 -524.017 L 524.029 -524.017 Q 523.443 -524.138 522.892 -524.138 L 522.892 -524.138 L 522.892 -524.138 Q 521.96 -524.138 521.96 -523.629 L 521.96 -523.629 L 521.96 -523.629 Q 521.96 -523.375 522.264 -523.198 L 522.264 -523.198 L 522.264 -523.198 Q 522.568 -523.022 523.514 -522.754 L 523.514 -522.754 L 523.514 -522.754 Q 524.997 -522.358 525.759 -521.546 L 525.759 -521.546 L 525.759 -521.546 Q 526.522 -520.734 526.522 -519.604 L 526.522 -519.604 L 526.522 -519.604 Q 526.522 -518.037 525.505 -517.196 L 525.505 -517.196 L 525.505 -517.196 Q 524.488 -516.356 522.497 -516.356 L 522.497 -516.356 L 522.497 -516.356 Z  M 421.776 -516.356 L 421.776 -516.356 Q 420.251 -516.356 419.072 -517.006 L 419.072 -517.006 L 419.072 -517.006 Q 417.893 -517.655 417.236 -518.806 L 417.236 -518.806 L 417.236 -518.806 Q 416.579 -519.957 416.579 -521.426 L 416.579 -521.426 L 416.579 -521.426 Q 416.579 -522.909 417.236 -524.067 L 417.236 -524.067 L 417.236 -524.067 Q 417.893 -525.225 419.072 -525.868 L 419.072 -525.868 L 419.072 -525.868 Q 420.251 -526.51 421.776 -526.51 L 421.776 -526.51 L 421.776 -526.51 Q 423.302 -526.51 424.481 -525.868 L 424.481 -525.868 L 424.481 -525.868 Q 425.66 -525.225 426.317 -524.074 L 426.317 -524.074 L 426.317 -524.074 Q 426.973 -522.923 426.973 -521.426 L 426.973 -521.426 L 426.973 -521.426 Q 426.973 -519.957 426.317 -518.806 L 426.317 -518.806 L 426.317 -518.806 Q 425.66 -517.655 424.474 -517.006 L 424.474 -517.006 L 424.474 -517.006 Q 423.288 -516.356 421.776 -516.356 L 421.776 -516.356 L 421.776 -516.356 Z  M 421.776 -518.926 L 421.776 -518.926 Q 422.666 -518.926 423.238 -519.618 L 423.238 -519.618 L 423.238 -519.618 Q 423.81 -520.31 423.81 -521.44 L 423.81 -521.44 L 423.81 -521.44 Q 423.81 -522.189 423.549 -522.775 L 423.549 -522.775 L 423.549 -522.775 Q 423.288 -523.361 422.822 -523.693 L 422.822 -523.693 L 422.822 -523.693 Q 422.355 -524.025 421.762 -524.025 L 421.762 -524.025 L 421.762 -524.025 Q 421.183 -524.025 420.717 -523.693 L 420.717 -523.693 L 420.717 -523.693 Q 420.251 -523.361 419.997 -522.775 L 419.997 -522.775 L 419.997 -522.775 Q 419.743 -522.189 419.743 -521.44 L 419.743 -521.44 L 419.743 -521.44 Q 419.743 -520.31 420.308 -519.618 L 420.308 -519.618 L 420.308 -519.618 Q 420.873 -518.926 421.776 -518.926 L 421.776 -518.926 L 421.776 -518.926 Z  M 435.687 -516.356 L 435.687 -516.356 Q 433.032 -516.356 432.439 -518.813 L 432.439 -518.813 L 432.086 -520.268 L 431.422 -520.268 L 431.422 -516.582 L 428.329 -516.582 L 428.329 -526.298 L 432.608 -526.298 L 432.608 -526.298 Q 433.823 -526.298 434.748 -525.938 L 434.748 -525.938 L 434.748 -525.938 Q 435.673 -525.578 436.181 -524.928 L 436.181 -524.928 L 436.181 -524.928 Q 436.69 -524.279 436.69 -523.431 L 436.69 -523.431 L 436.69 -523.431 Q 436.69 -522.485 436.231 -521.843 L 436.231 -521.843 L 436.231 -521.843 Q 435.772 -521.2 434.811 -520.791 L 434.811 -520.791 L 434.811 -520.791 Q 434.91 -520.254 435.037 -519.816 L 435.037 -519.816 L 435.037 -519.816 Q 435.207 -519.279 435.503 -519.068 L 435.503 -519.068 L 435.503 -519.068 Q 435.8 -518.856 436.365 -518.856 L 436.365 -518.856 L 436.365 -518.856 Q 436.563 -518.856 436.986 -518.912 L 436.986 -518.912 L 436.986 -516.61 L 436.986 -516.61 Q 436.322 -516.356 435.687 -516.356 L 435.687 -516.356 L 435.687 -516.356 Z  M 431.422 -522.245 L 431.959 -522.245 L 431.959 -522.245 Q 433.004 -522.245 433.434 -522.478 L 433.434 -522.478 L 433.434 -522.478 Q 433.865 -522.711 433.865 -523.276 L 433.865 -523.276 L 433.865 -523.276 Q 433.865 -523.756 433.512 -523.975 L 433.512 -523.975 L 433.512 -523.975 Q 433.159 -524.194 432.396 -524.194 L 432.396 -524.194 L 431.422 -524.194 L 431.422 -522.245 L 431.422 -522.245 Z  M 442.635 -516.356 L 442.635 -516.356 Q 441.209 -516.356 440.065 -517.041 L 440.065 -517.041 L 440.065 -517.041 Q 438.921 -517.726 438.271 -518.912 L 438.271 -518.912 L 438.271 -518.912 Q 437.622 -520.099 437.622 -521.525 L 437.622 -521.525 L 437.622 -521.525 Q 437.622 -522.895 438.278 -524.039 L 438.278 -524.039 L 438.278 -524.039 Q 438.935 -525.183 440.107 -525.846 L 440.107 -525.846 L 440.107 -525.846 Q 441.279 -526.51 442.776 -526.51 L 442.776 -526.51 L 442.776 -526.51 Q 443.595 -526.51 444.365 -526.326 L 444.365 -526.326 L 444.365 -526.326 Q 445.135 -526.143 445.756 -525.804 L 445.756 -525.804 L 444.824 -523.615 L 444.824 -523.615 Q 443.864 -524.01 443.031 -524.01 L 443.031 -524.01 L 443.031 -524.01 Q 441.943 -524.01 441.35 -523.311 L 441.35 -523.311 L 441.35 -523.311 Q 440.757 -522.612 440.757 -521.483 L 440.757 -521.483 L 440.757 -521.483 Q 440.757 -520.748 441.025 -520.162 L 441.025 -520.162 L 441.025 -520.162 Q 441.294 -519.576 441.781 -519.237 L 441.781 -519.237 L 441.781 -519.237 Q 442.268 -518.898 442.889 -518.898 L 442.889 -518.898 L 442.889 -518.898 Q 443.228 -518.898 443.454 -518.955 L 443.454 -518.955 L 443.454 -521.228 L 445.897 -521.511 L 445.897 -517.09 L 445.897 -517.09 Q 444.302 -516.356 442.635 -516.356 L 442.635 -516.356 L 442.635 -516.356 Z  M 446.575 -516.582 L 449.259 -526.298 L 453.552 -526.298 L 456.362 -516.582 L 453.043 -516.582 L 452.676 -518.446 L 450.162 -518.446 L 449.753 -516.582 L 446.575 -516.582 L 446.575 -516.582 Z  M 450.459 -520.183 L 452.337 -520.183 L 451.419 -524.434 L 450.459 -520.183 L 450.459 -520.183 Z  M 457.294 -516.582 L 457.294 -526.298 L 460.133 -526.298 L 464.002 -521.059 L 464.002 -526.298 L 466.53 -526.298 L 466.53 -516.582 L 463.706 -516.582 L 459.808 -521.638 L 459.808 -516.582 L 457.294 -516.582 L 457.294 -516.582 Z  M 468.366 -516.582 L 468.366 -526.298 L 471.628 -526.298 L 471.628 -516.582 L 468.366 -516.582 L 468.366 -516.582 Z  M 476.472 -516.356 L 476.472 -516.356 Q 474.481 -516.356 473.111 -517.09 L 473.111 -517.09 L 473.817 -519.279 L 473.817 -519.279 Q 475.272 -518.757 476.416 -518.757 L 476.416 -518.757 L 476.416 -518.757 Q 477.037 -518.757 477.327 -518.905 L 477.327 -518.905 L 477.327 -518.905 Q 477.616 -519.053 477.616 -519.35 L 477.616 -519.35 L 477.616 -519.35 Q 477.616 -519.548 477.461 -519.696 L 477.461 -519.696 L 477.461 -519.696 Q 477.306 -519.844 476.839 -520.028 L 476.839 -520.028 L 476.839 -520.028 Q 476.373 -520.212 475.441 -520.48 L 475.441 -520.48 L 475.441 -520.48 Q 474.297 -520.819 473.662 -521.588 L 473.662 -521.588 L 473.662 -521.588 Q 473.026 -522.358 473.026 -523.361 L 473.026 -523.361 L 473.026 -523.361 Q 473.026 -524.914 474.05 -525.712 L 474.05 -525.712 L 474.05 -525.712 Q 475.074 -526.51 476.811 -526.51 L 476.811 -526.51 L 476.811 -526.51 Q 477.715 -526.51 478.591 -526.319 L 478.591 -526.319 L 478.591 -526.319 Q 479.466 -526.129 480.144 -525.762 L 480.144 -525.762 L 479.381 -523.629 L 479.381 -523.629 Q 478.591 -523.897 478.005 -524.017 L 478.005 -524.017 L 478.005 -524.017 Q 477.418 -524.138 476.868 -524.138 L 476.868 -524.138 L 476.868 -524.138 Q 475.936 -524.138 475.936 -523.629 L 475.936 -523.629 L 475.936 -523.629 Q 475.936 -523.375 476.239 -523.198 L 476.239 -523.198 L 476.239 -523.198 Q 476.543 -523.022 477.489 -522.754 L 477.489 -522.754 L 477.489 -522.754 Q 478.972 -522.358 479.735 -521.546 L 479.735 -521.546 L 479.735 -521.546 Q 480.497 -520.734 480.497 -519.604 L 480.497 -519.604 L 480.497 -519.604 Q 480.497 -518.037 479.48 -517.196 L 479.48 -517.196 L 479.48 -517.196 Q 478.464 -516.356 476.472 -516.356 L 476.472 -516.356 L 476.472 -516.356 Z  M 481.825 -516.582 L 481.825 -526.298 L 488.646 -526.298 L 488.646 -524.152 L 485.256 -524.152 L 485.256 -522.386 L 488.349 -522.386 L 488.349 -520.607 L 485.256 -520.607 L 485.256 -518.729 L 488.646 -518.729 L 488.646 -516.582 L 481.825 -516.582 L 481.825 -516.582 Z  M 497.585 -516.356 L 497.585 -516.356 Q 494.93 -516.356 494.337 -518.813 L 494.337 -518.813 L 493.984 -520.268 L 493.32 -520.268 L 493.32 -516.582 L 490.227 -516.582 L 490.227 -526.298 L 494.507 -526.298 L 494.507 -526.298 Q 495.721 -526.298 496.646 -525.938 L 496.646 -525.938 L 496.646 -525.938 Q 497.571 -525.578 498.079 -524.928 L 498.079 -524.928 L 498.079 -524.928 Q 498.588 -524.279 498.588 -523.431 L 498.588 -523.431 L 498.588 -523.431 Q 498.588 -522.485 498.129 -521.843 L 498.129 -521.843 L 498.129 -521.843 Q 497.67 -521.2 496.71 -520.791 L 496.71 -520.791 L 496.71 -520.791 Q 496.808 -520.254 496.936 -519.816 L 496.936 -519.816 L 496.936 -519.816 Q 497.105 -519.279 497.402 -519.068 L 497.402 -519.068 L 497.402 -519.068 Q 497.698 -518.856 498.263 -518.856 L 498.263 -518.856 L 498.263 -518.856 Q 498.461 -518.856 498.884 -518.912 L 498.884 -518.912 L 498.884 -516.61 L 498.884 -516.61 Q 498.221 -516.356 497.585 -516.356 L 497.585 -516.356 L 497.585 -516.356 Z  M 493.32 -522.245 L 493.857 -522.245 L 493.857 -522.245 Q 494.902 -522.245 495.333 -522.478 L 495.333 -522.478 L 495.333 -522.478 Q 495.763 -522.711 495.763 -523.276 L 495.763 -523.276 L 495.763 -523.276 Q 495.763 -523.756 495.41 -523.975 L 495.41 -523.975 L 495.41 -523.975 Q 495.057 -524.194 494.295 -524.194 L 494.295 -524.194 L 493.32 -524.194 L 493.32 -522.245 L 493.32 -522.245 Z " fill="rgb(255,189,74)"/></g><path d=" M 385.831 -710.201 L 375.771 -715.116 L 366.02 -709.615 L 367.585 -720.701 L 359.34 -728.276 L 370.367 -730.212 L 375.023 -740.394 L 380.273 -730.505 L 391.395 -729.224 L 383.613 -721.175 L 385.831 -710.201 Z " fill="rgb(255,189,74)" vector-effect="non-scaling-stroke" stroke-width="1" stroke="rgb(0,0,0)" stroke-linejoin="miter" stroke-linecap="square" stroke-miterlimit="3"/><path d=" M 627.869 -710.201 L 617.81 -715.116 L 608.058 -709.615 L 609.624 -720.701 L 601.379 -728.276 L 612.406 -730.212 L 617.062 -740.394 L 622.312 -730.505 L 633.434 -729.224 L 625.651 -721.175 L 627.869 -710.201 Z " fill="rgb(255,189,74)" vector-effect="non-scaling-stroke" stroke-width="1" stroke="rgb(0,0,0)" stroke-linejoin="miter" stroke-linecap="square" stroke-miterlimit="3"/><path d=" M 507.088 -740.98 L 497.028 -745.895 L 487.277 -740.394 L 488.842 -751.48 L 480.597 -759.055 L 491.625 -760.992 L 496.281 -771.174 L 501.53 -761.285 L 512.653 -760.003 L 504.87 -751.954 L 507.088 -740.98 Z " fill="rgb(255,189,74)" vector-effect="non-scaling-stroke" stroke-width="1" stroke="rgb(0,0,0)" stroke-linejoin="miter" stroke-linecap="square" stroke-miterlimit="3"/></g></g></svg>